<?xml version="1.0" standalone="no"?>
<!DOCTYPE svg PUBLIC "-//W3C//DTD SVG 20010904//EN"
 "http://www.w3.org/TR/2001/REC-SVG-20010904/DTD/svg10.dtd">
<svg version="1.0" xmlns="http://www.w3.org/2000/svg"
 width="1000.000000pt" height="1000.000000pt" viewBox="0 0 1000.000000 1000.000000"
 preserveAspectRatio="xMidYMid meet">

<g transform="translate(0.000000,1000.000000) scale(0.100000,-0.100000)"
fill="#000000" stroke="none">
<path d="M1583 9963 l-1543 -3 0 -4963 0 -4964 2676 -7 c1472 -4 3706 -4 4965
0 l2289 7 0 4962 0 4962 -1987 6 c-1094 4 -2634 6 -3423 5 -789 -2 -2129 -4
-2977 -5z m5818 -2020 c232 -51 439 -144 615 -276 369 -277 590 -648 644
-1080 18 -144 8 -415 -20 -547 -68 -320 -239 -614 -489 -840 -72 -66 -219
-178 -253 -194 -10 -5 -10 -7 -1 -12 52 -24 206 -148 298 -239 138 -136 226
-255 304 -404 117 -229 161 -402 169 -668 5 -197 -6 -314 -48 -478 -62 -247
-198 -485 -387 -681 -240 -248 -499 -394 -832 -467 -95 -21 -115 -21 -1478
-24 l-1383 -4 0 1381 0 1380 -336 2 -337 3 -20 54 c-26 67 -113 164 -179 197
l-48 24 0 70 0 70 1170 0 1170 0 0 -210 0 -210 -500 0 -500 0 0 -1165 c0 -923
3 -1167 13 -1170 6 -3 530 -1 1162 4 1111 8 1153 9 1225 29 171 46 285 101
419 203 210 158 365 389 432 644 22 81 24 110 23 290 0 186 -2 207 -28 300
-52 190 -140 344 -280 492 -181 193 -411 318 -646 352 -133 19 -158 20 -657
20 l-493 1 0 209 0 209 553 5 c456 4 565 7 627 21 244 52 443 165 616 349 140
148 231 308 282 495 23 89 26 114 26 297 1 180 -1 209 -23 290 -98 372 -380
684 -734 810 -180 64 -151 63 -1562 69 -1488 7 -2477 -4 -2598 -28 -408 -80
-734 -258 -1025 -561 -296 -307 -463 -648 -518 -1055 -10 -81 -14 -262 -14
-802 l0 -697 33 -6 c308 -52 927 -42 1218 20 22 5 30 -2 62 -47 42 -61 86 -98
154 -130 58 -28 58 -28 58 -70 0 -29 -4 -34 -39 -46 -53 -17 -274 -57 -421
-76 -286 -37 -688 -40 -945 -6 -41 5 -85 10 -97 10 l-23 0 0 -1010 0 -1010
-215 0 c-165 0 -215 3 -215 13 0 6 0 861 0 1898 0 1988 0 1977 45 2189 92 438
282 790 605 1123 373 386 778 597 1311 684 92 15 241 17 1289 23 652 3 1532 5
1955 5 742 -1 773 -2 866 -22z m-3849 -2904 c201 -67 308 -257 264 -468 -18
-86 -51 -144 -117 -206 -197 -184 -516 -124 -634 120 -27 55 -30 69 -30 170 0
100 3 115 29 172 47 102 161 198 263 222 68 16 160 12 225 -10z m28 -2054 l0
-955 -215 0 -215 0 0 955 0 955 215 0 215 0 0 -955z"/>
<path d="M3335 5000 c-13 -6 -5 -7 25 -3 25 3 47 7 49 9 9 8 -55 2 -74 -6z"/>
<path d="M3453 5003 c9 -2 25 -2 35 0 9 3 1 5 -18 5 -19 0 -27 -2 -17 -5z"/>
<path d="M3558 4979 c65 -25 149 -105 182 -174 34 -70 36 -217 3 -287 -41 -90
-122 -159 -228 -195 -39 -13 -39 -13 -5 -8 88 14 188 92 236 186 22 43 28 71
32 139 5 110 -18 177 -89 254 -47 52 -135 107 -168 105 -9 0 8 -9 37 -20z"/>
<path d="M3244 4961 c-63 -37 -109 -89 -143 -161 -21 -45 -25 -70 -26 -140 0
-73 4 -94 29 -147 46 -100 179 -205 256 -202 19 1 16 3 -13 10 -97 23 -191
102 -234 197 -33 71 -37 180 -10 260 23 64 102 154 166 187 25 13 42 24 36 24
-5 1 -33 -12 -61 -28z"/>
<path d="M3380 4918 c0 -28 -6 -36 -38 -53 -51 -28 -78 -82 -62 -130 14 -43
55 -78 117 -101 26 -9 59 -27 72 -40 23 -22 24 -24 7 -48 -22 -35 -79 -36
-129 -2 l-36 25 -21 -26 c-11 -14 -20 -29 -20 -34 0 -14 54 -50 82 -56 26 -5
28 -9 28 -49 l0 -44 40 0 40 0 0 40 c0 38 3 41 40 56 71 29 108 110 77 171
-22 41 -39 54 -121 88 -61 26 -71 34 -71 55 0 22 5 25 39 28 28 3 47 -3 69
-19 l30 -22 24 28 c22 25 23 29 8 45 -8 9 -33 25 -55 35 -35 16 -40 22 -40 52
0 32 -1 33 -40 33 -38 0 -40 -1 -40 -32z"/>
<path d="M3408 4303 c12 -2 30 -2 40 0 9 3 -1 5 -23 4 -22 0 -30 -2 -17 -4z"/>
</g>
</svg>
